<svg xmlns="http://www.w3.org/2000/svg" width="198.695" height="52.567" viewBox="0 0 198.695 52.567">
  <g id="logo" transform="translate(-14.4 -11.5)">
    <path id="Path_1" data-name="Path 1" d="M1162.945,19.6l-.329,4.633h-8.633V28.3h7.619v4.6h-7.619v4.2h8.736v4.627H1148.8V19.6Z" transform="translate(-1061.097 -7.577)" fill="#1795d4"/>
    <rect id="Rectangle_1" data-name="Rectangle 1" width="24.729" height="7.418" transform="translate(30.361 26.931)" fill="#1795d4"/>
    <rect id="Rectangle_2" data-name="Rectangle 2" width="24.729" height="7.425" transform="translate(30.361 41.464)" fill="#1795d4"/>
    <path id="Path_2" data-name="Path 2" d="M14.4,25.7V76.787H36.758V69.363H21.825V33.125H36.758V25.7H14.4Z" transform="translate(0 -13.282)" fill="#1795d4"/>
    <path id="Path_3" data-name="Path 3" d="M554.053,25.7H538.7v7.425h15.353V69.363H538.7v7.425h22.772V25.7Z" transform="translate(-490.421 -13.282)" fill="#1795d4"/>
    <path id="Path_4" data-name="Path 4" d="M1412.307,23.021c0-6.927,2.43-11.521,9.227-11.521,6.83,0,9.221,4.594,9.221,11.521v.1c0,4.827-1.15,8.471-4.136,10.307l3.347,3.9-4.5,2.3-3.25-4.989a4.727,4.727,0,0,1-.691.032c-6.791,0-9.228-4.594-9.228-11.554v-.1Zm5.447.065c0,4.562.982,6.895,3.774,6.895s3.806-2.333,3.806-6.895c0-4.53-1.021-6.895-3.806-6.895s-3.774,2.365-3.774,6.895" transform="translate(-1307.57)" fill="#1795d4"/>
    <path id="Path_5" data-name="Path 5" d="M1758.483,19.1V32.56c0,3.024.62,4.53,3.283,4.53,2.695,0,3.283-1.506,3.283-4.53V19.1h5.189V32.819c0,5.842-2.035,8.963-8.471,8.963s-8.465-3.121-8.465-8.963V19.1Z" transform="translate(-1626.535 -7.109)" fill="#1795d4"/>
    <path id="Path_6" data-name="Path 6" d="M2060.548,19.6c1.771,4.627,4.859,14.184,7.024,22.125h-5.286l-.95-4.2h-6.727l-.956,4.2H2048.4a228.544,228.544,0,0,1,6.992-22.125Zm-2.662,6.074c-.821,2.462-1.473,4.859-2.1,7.218h4.368c-.691-2.365-1.312-4.762-2.1-7.218h-.168Z" transform="translate(-1902.566 -7.577)" fill="#1795d4"/>
    <path id="Path_7" data-name="Path 7" d="M2394.389,19.6V37.1h8.73v4.627H2389.2V19.6Z" transform="translate(-2221.344 -7.577)" fill="#1795d4"/>
    <path id="Path_8" data-name="Path 8" d="M1162.945,474.6l-.329,4.627h-8.633V483.3h7.619v4.594h-7.619V492.1h8.736v4.627H1148.8V474.6Z" transform="translate(-1061.097 -433.175)" fill="#1795d4"/>
    <path id="Path_9" data-name="Path 9" d="M1404.871,474.6c.956,1.939,2.365,4.665,3.541,6.733h.1c1.215-1.971,2.656-4.795,3.58-6.733h5.842c-1.538,3.153-3.968,7.321-6.2,11l6.668,11.127h-6.2L1408.58,490h-.1l-3.677,6.727H1398.7l6.533-11.16c-2.068-3.509-4.659-8.239-6.171-10.966Z" transform="translate(-1294.849 -433.175)" fill="#1795d4"/>
    <path id="Path_10" data-name="Path 10" d="M1752.445,474.6a17.689,17.689,0,0,1,5.35.627c2.462.885,4.071,3.315,4.071,6.733,0,5.021-3.186,7.515-8.536,7.515h-1.441v7.25H1746.7V474.6Zm-.556,10.242h1.015c2.236,0,3.515-.265,3.515-2.888a2.666,2.666,0,0,0-.95-2.236,4.424,4.424,0,0,0-2.494-.491h-1.086Z" transform="translate(-1620.361 -433.175)" fill="#1795d4"/>
    <path id="Path_11" data-name="Path 11" d="M2047.845,474.6l-.33,4.627h-8.633V483.3h7.619v4.594h-7.619V492.1h8.736v4.627H2033.7V474.6Z" transform="translate(-1888.816 -433.175)" fill="#1795d4"/>
    <path id="Path_12" data-name="Path 12" d="M2315.151,474.6a17.687,17.687,0,0,1,5.35.627c2.462.885,4.071,3.315,4.071,6.727,0,3.056-1.182,5.189-3.315,6.365l4,8.407h-5.383l-3.186-7.289c-.362.032-.853.032-1.312.032h-.789v7.257H2309.4V474.6Zm-.556,10.339h1.014c2.236,0,3.515-.362,3.515-2.985a2.8,2.8,0,0,0-.95-2.3,4.332,4.332,0,0,0-2.5-.491h-1.079Z" transform="translate(-2146.7 -433.175)" fill="#1795d4"/>
    <path id="Path_13" data-name="Path 13" d="M2590.819,474.6l-.33,4.627H2585.2v17.5h-5.183v-17.5H2574.6V474.6Z" transform="translate(-2394.764 -433.175)" fill="#1795d4"/>
    <path id="Path_14" data-name="Path 14" d="M2872.089,472.348a11.384,11.384,0,0,0-5.092-1.312,4.25,4.25,0,0,0-1.9.33,1.46,1.46,0,0,0-.956,1.441c0,1.182,1.182,1.874,2.792,2.527l1.842.724c3.282,1.312,4.827,3.082,4.827,6.3,0,5.118-3.741,7.121-8.239,7.121a20.5,20.5,0,0,1-6.139-1.047l.232-4.989a14.28,14.28,0,0,0,5.415,1.344c2.365,0,3.283-.594,3.283-1.939,0-1.279-.853-1.835-2.727-2.591l-1.835-.724c-2.662-1.053-4.892-2.921-4.892-6.6,0-3.644,2.662-6.636,8.045-6.636a16.094,16.094,0,0,1,5.648,1.118Z" transform="translate(-2660.506 -425.411)" fill="#1795d4"/>
  </g>
</svg>
